<svg xmlns="http://www.w3.org/2000/svg" viewBox="0 0 15.87 19.75">
    <defs>
        <style>.cls-1,.cls-2{fill:#0e2f4b;}.cls-1{fill-rule:evenodd;}</style>
    </defs>
    <title>Asset 1</title>
    <g id="Layer_2" data-name="Layer 2">
        <g id="Layer_1-2" data-name="Layer 1">
            <path class="cls-1" d="M1.53,18.25,2.34,5.43H13.53l.81,12.82Zm14.34.44L15,4.87a1,1,0,0,0-1-.94H1.87a1,1,0,0,0-1,.94L0,18.69v.06a1,1,0,0,0,1,1H14.93A1,1,0,0,0,15.87,18.69Z"/>
            <path class="cls-2" d="M11.68,6.11a.75.75,0,0,1-1.5,0V3.75a2.25,2.25,0,0,0-4.5,0V6.11a.75.75,0,0,1-1.5,0V3.75a3.75,3.75,0,0,1,7.5,0Z"/>
        </g>
    </g>
</svg>